<svg id="rotate-left" enable-background="new 0 0 300 300" height="512" viewBox="0 0 300 300" width="512" xmlns="http://www.w3.org/2000/svg"><path d="m226.42 53.237c1.791-.366 3.156-1.873 3.221-3.768.076-2.208-1.652-4.06-3.86-4.136l-14.827-.51c-1.398-.022-2.731.644-3.495 1.823s-.853 2.673-.234 3.935l6.527 13.322c.694 1.418 2.116 2.241 3.595 2.241.591 0 1.191-.132 1.757-.409 1.984-.972 2.804-3.368 1.832-5.352l-1.032-2.107c19.525 15.122 31.037 38.4 31.037 63.268 0 2.209 1.791 4 4 4s4-1.791 4-4c-.001-26.66-12.029-51.658-32.521-68.307z"/><path d="m210.492 88.277c-7.476-4.785-17.448-2.597-22.231 4.879l-1.094 1.709c-1.24-2.389-3.089-4.499-5.514-6.052-3.579-2.291-7.834-3.051-11.984-2.14-4.15.91-7.697 3.383-9.987 6.961l-12.001 18.747c-1.247-2.423-3.115-4.565-5.57-6.137-7.431-4.757-17.345-2.582-22.102 4.85l-1.144 1.786c-1.247-2.423-3.115-4.565-5.57-6.137-3.599-2.304-7.88-3.069-12.056-2.152-4.174.915-7.742 3.402-10.046 7.002l-1.15 1.797c-.001.001-.002.002-.003.004l-42.925 67.057c-5.514 8.612-7.344 18.857-5.152 28.847s8.143 18.527 16.755 24.041l24.001 15.364c6.708 4.294 14.365 6.475 22.067 6.475 5.626 0 11.276-1.164 16.596-3.52l78.539-34.772c8.001-3.542 12.036-12.503 9.385-20.842-2.857-8.988-12.495-13.982-21.488-11.131l-25.189 7.987 52.742-82.391c4.783-7.473 2.595-17.447-4.879-22.232zm-1.86 17.92-58.702 91.701c-.908 1.418-.831 3.254.194 4.591s2.78 1.892 4.383 1.378l35.727-11.329c4.786-1.517 9.924 1.141 11.446 5.93 1.412 4.442-.737 9.216-5 11.104l-78.538 34.772c-10.142 4.489-21.772 3.601-31.111-2.379l-24-15.365c-6.813-4.361-11.521-11.115-13.254-19.017-1.734-7.902-.287-16.007 4.075-22.82l25.771-40.259c.001-.002.003-.003.004-.005l18.304-28.594c1.152-1.8 2.936-3.043 5.022-3.501 2.089-.456 4.228-.076 6.028 1.077 3.715 2.377 4.802 7.333 2.426 11.048l-.025.04s0 .001-.001.001l-14.468 22.601c-1.191 1.86-.648 4.334 1.212 5.525.668.428 1.415.632 2.153.632 1.318 0 2.609-.651 3.373-1.845l23.095-36.077c2.378-3.715 7.337-4.804 11.051-2.425 3.715 2.378 4.803 7.335 2.425 11.051l-21.189 33.1c-1.191 1.86-.648 4.334 1.212 5.525 1.861 1.192 4.335.649 5.525-1.213 0 0 21.193-33.107 21.195-33.11l19.454-30.39c1.138-1.778 2.901-3.007 4.964-3.46 2.061-.449 4.178-.074 5.957 1.064 1.778 1.139 3.007 2.901 3.459 4.964s.075 4.178-1.063 5.957l-40.649 63.5c-1.191 1.86-.648 4.334 1.212 5.525.668.428 1.415.632 2.153.632 1.318 0 2.609-.651 3.373-1.845l40.649-63.5c.001-.002.002-.004.004-.007l8.52-13.31c2.406-3.76 7.422-4.861 11.181-2.453 3.759 2.411 4.859 7.426 2.453 11.186z"/></svg>